<?xml version="1.0" encoding="UTF-8"?>
<svg version="1.1" width="32" height="32" viewBox="0 0 32 32" xmlns="http://www.w3.org/2000/svg">
  <path x="7.1054274e-15" y="7.1054274e-15" width="32" height="32" d="m8 0h16a8 8 45 0 1 8 8v16a8 8 135 0 1-8 8h-16a8 8 45 0 1-8-8v-16a8 8 135 0 1 8-8z" fill="#ff6464" fill-rule="evenodd"/>
  <g fill="#fff" stroke-width=".0625" aria-label="J">
    <path d="m21.76 19.85q0 1.263-0.4297 2.383-0.4297 1.107-1.302 1.888-0.9767 0.8855-2.305 1.302-1.328 0.4167-3.06 0.4167-1.289 0-2.422-0.1042-1.133-0.09116-1.992-0.2735v-3.933h0.4428q0.586 0.2344 1.224 0.4428 0.6381 0.1953 1.641 0.1953 1.289 0 1.979-0.3646 0.7032-0.3646 0.9897-1.016 0.2995-0.6381 0.3256-1.472 0.03907-0.8465 0.03907-1.875v-7.774h-4.441v-3.516h9.311z"/>
  </g>
</svg>
